<svg width="275" height="115" viewBox="0 0 275 115" fill="none" xmlns="http://www.w3.org/2000/svg">
<path d="M83.128 44.368C97.312 44.368 104.44 49.936 104.44 63.808V87.904C104.44 91.648 101.44 94.648 97.744 94.648C94.024 94.648 91 91.648 91 87.904V87.184C87.784 92.584 82.48 95.296 76.048 95.296C66.928 95.296 59.224 89.968 59.224 80.032C59.224 69.976 67.96 64.336 79.816 64.336C83.416 64.336 86.968 64.936 90.952 66.232V64.984C90.952 59.224 88.12 56.056 80.68 56.056C76.84 56.056 73.96 56.992 71.872 57.736C70.12 58.408 68.872 58.864 67.048 58.864C64.624 58.864 62.08 56.944 62.08 53.632C62.08 50.968 63.688 48.832 66.616 47.56C70.504 45.928 76.048 44.368 83.128 44.368ZM79.48 85.312C85.624 85.312 90.784 81.016 90.976 74.224V73.864C87.688 72.472 84.448 71.896 81.64 71.896C75.232 71.896 71.92 74.272 71.92 78.808C71.92 83.272 74.968 85.312 79.48 85.312ZM123.292 20.56C126.988 20.56 129.988 23.56 129.988 27.304V87.904C129.988 91.648 126.988 94.648 123.292 94.648C119.572 94.648 116.548 91.648 116.548 87.904V27.304C116.548 23.56 119.572 20.56 123.292 20.56Z" fill="#4CB8DB"/>
<rect x="6" y="37" width="43" height="43" rx="8" stroke="#4CB8DB" stroke-width="12"/>
<path d="M6 64L6 100" stroke="#4CB8DB" stroke-width="12" stroke-linecap="round"/>
<rect x="18" y="49" width="19" height="19" rx="4" fill="#1A1A1A"/>
<rect x="160" y="49" width="24" height="24" rx="4" fill="#4CB8DB"/>
<path d="M194 99.6603L189 91" stroke="#1A1A1A" stroke-width="12" stroke-linecap="round"/>
<rect x="145" y="34" width="54" height="54" rx="8" stroke="#1A1A1A" stroke-width="12"/>
<path d="M255.856 69.736L266.68 84.16C267.496 85.264 268 86.632 268 88.12C268 91.84 265.048 94.648 261.424 94.648C259.24 94.648 257.128 93.64 255.952 92.008L240.76 71.344H227.92V87.592C227.92 91.408 224.776 94.648 220.96 94.648C217.144 94.648 214 91.408 214 87.592V36.04C214 31.288 216.568 28.72 221.344 28.72H245.248C262.288 28.72 271.12 39.328 271.12 50.032C271.12 58.24 265.936 66.376 255.856 69.736ZM227.92 40.336V59.728H243.904C251.968 59.728 256.24 56.272 256.24 50.032C256.24 43.792 251.968 40.336 243.904 40.336H227.92Z" fill="#1A1A1A"/>
</svg>
