<svg xmlns="http://www.w3.org/2000/svg" xmlns:xlink="http://www.w3.org/1999/xlink" width="500" zoomAndPan="magnify" viewBox="0 0 375 374.999991" height="500" preserveAspectRatio="xMidYMid meet" version="1.0"><defs><clipPath id="fd71b1c066"><path d="M 63 46 L 325 46 L 325 310 L 63 310 Z M 63 46 " clip-rule="nonzero"/></clipPath><clipPath id="54a23bd258"><path d="M -53.28125 205.859375 L 219.074219 -51.914062 L 428.386719 169.238281 L 156.03125 427.011719 Z M -53.28125 205.859375 " clip-rule="nonzero"/></clipPath><clipPath id="03ab973ffd"><path d="M -53.667969 206.226562 L 219.230469 -52.0625 L 428.542969 169.089844 L 155.644531 427.378906 Z M -53.667969 206.226562 " clip-rule="nonzero"/></clipPath><clipPath id="4443ddca50"><path d="M -110.339844 259.867188 L 280.214844 -109.785156 L 635.429688 265.519531 L 244.875 635.171875 Z M -110.339844 259.867188 " clip-rule="nonzero"/></clipPath><clipPath id="7b2cd89d67"><path d="M 15 240 L 127 240 L 127 355 L 15 355 Z M 15 240 " clip-rule="nonzero"/></clipPath><clipPath id="2b2d37400f"><path d="M -53.28125 205.859375 L 219.074219 -51.914062 L 428.386719 169.238281 L 156.03125 427.011719 Z M -53.28125 205.859375 " clip-rule="nonzero"/></clipPath><clipPath id="ae5af55d30"><path d="M -53.667969 206.226562 L 219.230469 -52.0625 L 428.542969 169.089844 L 155.644531 427.378906 Z M -53.667969 206.226562 " clip-rule="nonzero"/></clipPath><clipPath id="099ef4b240"><path d="M -110.339844 259.867188 L 280.214844 -109.785156 L 635.429688 265.519531 L 244.875 635.171875 Z M -110.339844 259.867188 " clip-rule="nonzero"/></clipPath><clipPath id="b3fd1aae12"><path d="M 202 98 L 279 98 L 279 178 L 202 178 Z M 202 98 " clip-rule="nonzero"/></clipPath><clipPath id="e10dec7212"><path d="M -53.28125 205.859375 L 219.074219 -51.914062 L 428.386719 169.238281 L 156.03125 427.011719 Z M -53.28125 205.859375 " clip-rule="nonzero"/></clipPath><clipPath id="46af8618a1"><path d="M -53.667969 206.226562 L 219.230469 -52.0625 L 428.542969 169.089844 L 155.644531 427.378906 Z M -53.667969 206.226562 " clip-rule="nonzero"/></clipPath><clipPath id="9314b00bcd"><path d="M -110.339844 259.867188 L 280.214844 -109.785156 L 635.429688 265.519531 L 244.875 635.171875 Z M -110.339844 259.867188 " clip-rule="nonzero"/></clipPath><clipPath id="2f33a67a42"><path d="M 177 55 L 322 55 L 322 204 L 177 204 Z M 177 55 " clip-rule="nonzero"/></clipPath><clipPath id="44aff3a751"><path d="M -53.28125 205.859375 L 219.074219 -51.914062 L 428.386719 169.238281 L 156.03125 427.011719 Z M -53.28125 205.859375 " clip-rule="nonzero"/></clipPath><clipPath id="6319ea04ad"><path d="M -53.667969 206.226562 L 219.230469 -52.0625 L 428.542969 169.089844 L 155.644531 427.378906 Z M -53.667969 206.226562 " clip-rule="nonzero"/></clipPath><clipPath id="ca42938f04"><path d="M -110.339844 259.867188 L 280.214844 -109.785156 L 635.429688 265.519531 L 244.875 635.171875 Z M -110.339844 259.867188 " clip-rule="nonzero"/></clipPath><clipPath id="6b88128a0c"><path d="M 151 11 L 365 11 L 365 232 L 151 232 Z M 151 11 " clip-rule="nonzero"/></clipPath><clipPath id="7d046603bd"><path d="M -53.28125 205.859375 L 219.074219 -51.914062 L 428.386719 169.238281 L 156.03125 427.011719 Z M -53.28125 205.859375 " clip-rule="nonzero"/></clipPath><clipPath id="42418e707f"><path d="M -53.667969 206.226562 L 219.230469 -52.0625 L 428.542969 169.089844 L 155.644531 427.378906 Z M -53.667969 206.226562 " clip-rule="nonzero"/></clipPath><clipPath id="fd0dee777b"><path d="M -110.339844 259.867188 L 280.214844 -109.785156 L 635.429688 265.519531 L 244.875 635.171875 Z M -110.339844 259.867188 " clip-rule="nonzero"/></clipPath></defs><g clip-path="url(#fd71b1c066)"><g clip-path="url(#54a23bd258)"><g clip-path="url(#03ab973ffd)"><g clip-path="url(#4443ddca50)"><path fill="#f98b32" d="M 220.082031 156.507812 L 324.429688 266.757812 L 138.796875 309.347656 L 100.898438 269.308594 L 63.03125 229.300781 L 115.761719 46.285156 Z M 220.082031 156.507812 " fill-opacity="1" fill-rule="nonzero"/></g></g></g></g><g clip-path="url(#7b2cd89d67)"><g clip-path="url(#2b2d37400f)"><g clip-path="url(#ae5af55d30)"><g clip-path="url(#099ef4b240)"><path fill="#f47a21" d="M 15.222656 274.554688 L 50.90625 240.777344 L 126.667969 320.824219 L 90.984375 354.601562 Z M 15.222656 274.554688 " fill-opacity="1" fill-rule="nonzero"/></g></g></g></g><g clip-path="url(#b3fd1aae12)"><g clip-path="url(#e10dec7212)"><g clip-path="url(#46af8618a1)"><g clip-path="url(#9314b00bcd)"><path fill="#f98b32" d="M 274.121094 176.246094 C 273.007812 177.304688 271.367188 177.730469 269.804688 177.226562 C 267.519531 176.488281 266.273438 174.042969 267.003906 171.765625 C 272.546875 154.582031 268.277344 135.761719 255.863281 122.644531 C 243.464844 109.546875 224.917969 104.261719 207.460938 108.851562 C 205.144531 109.457031 202.765625 108.074219 202.160156 105.753906 C 201.550781 103.441406 202.929688 101.070312 205.246094 100.460938 C 225.777344 95.0625 247.585938 101.277344 262.167969 116.6875 C 276.765625 132.109375 281.785156 154.242188 275.265625 174.441406 C 275.03125 175.152344 274.632812 175.765625 274.121094 176.246094 Z M 274.121094 176.246094 " fill-opacity="1" fill-rule="nonzero"/></g></g></g></g><g clip-path="url(#2f33a67a42)"><g clip-path="url(#44aff3a751)"><g clip-path="url(#6319ea04ad)"><g clip-path="url(#ca42938f04)"><path fill="#f47a21" d="M 309.777344 202.632812 C 308.496094 203.847656 306.546875 204.199219 304.871094 203.367188 C 302.726562 202.300781 301.84375 199.703125 302.90625 197.550781 C 319.960938 163.03125 313.632812 121.035156 287.136719 93.039062 C 260.632812 65.039062 219.058594 56.414062 183.683594 71.585938 C 181.480469 72.53125 178.929688 71.511719 177.980469 69.308594 C 177.035156 67.109375 178.0625 64.546875 180.253906 63.613281 C 218.960938 47.011719 264.441406 56.441406 293.4375 87.078125 C 322.417969 117.699219 329.347656 163.640625 310.679688 201.402344 C 310.449219 201.878906 310.140625 202.292969 309.777344 202.632812 Z M 309.777344 202.632812 " fill-opacity="1" fill-rule="nonzero"/></g></g></g></g><g clip-path="url(#6b88128a0c)"><g clip-path="url(#7d046603bd)"><g clip-path="url(#42418e707f)"><g clip-path="url(#fd0dee777b)"><path fill="#f97732" d="M 344.507812 230.308594 C 343.144531 231.597656 341.046875 231.894531 339.339844 230.902344 C 337.269531 229.695312 336.570312 227.042969 337.777344 224.96875 C 367.894531 173.210938 360.117188 106.617188 318.859375 63.023438 C 277.617188 19.449219 211.5625 8.035156 158.226562 35.261719 C 156.09375 36.351562 153.480469 35.507812 152.386719 33.375 C 151.300781 31.238281 152.132812 28.617188 154.269531 27.539062 C 211.011719 -1.433594 281.277344 10.707031 325.152344 57.066406 C 369.042969 103.4375 377.320312 174.285156 345.273438 229.34375 C 345.058594 229.703125 344.800781 230.03125 344.507812 230.308594 Z M 344.507812 230.308594 " fill-opacity="1" fill-rule="nonzero"/></g></g></g></g></svg>