<svg xmlns="http://www.w3.org/2000/svg" xmlns:xlink="http://www.w3.org/1999/xlink" width="600" zoomAndPan="magnify" viewBox="0 0 450 417.74999" height="557" preserveAspectRatio="xMidYMid meet" version="1.0"><defs><clipPath id="fe380cee31"><path d="M 0.316406 0 L 241 0 L 241 304 L 0.316406 304 Z M 0.316406 0 " clip-rule="nonzero"/></clipPath><clipPath id="04176cde6b"><path d="M 80 315 L 209 315 L 209 417.5 L 80 417.5 Z M 80 315 " clip-rule="nonzero"/></clipPath><clipPath id="1015c10e04"><path d="M 253 333 L 304 333 L 304 417.5 L 253 417.5 Z M 253 333 " clip-rule="nonzero"/></clipPath><clipPath id="ca4c23e24b"><path d="M 277 324 L 438 324 L 438 417.5 L 277 417.5 Z M 277 324 " clip-rule="nonzero"/></clipPath><clipPath id="cdaa504700"><path d="M 327 378 L 354 378 L 354 417.5 L 327 417.5 Z M 327 378 " clip-rule="nonzero"/></clipPath><clipPath id="bdd3c758fc"><path d="M 388 372 L 438 372 L 438 417.5 L 388 417.5 Z M 388 372 " clip-rule="nonzero"/></clipPath></defs><g clip-path="url(#fe380cee31)"><path fill="#f2778d" d="M 117.058594 0 C 52.621094 0 0.371094 67.941406 0.371094 151.792969 C 0.371094 235.644531 52.621094 303.621094 117.058594 303.621094 C 145.457031 303.621094 171.457031 290.382812 191.714844 268.453125 L 240.863281 295.347656 L 218.84375 225.964844 C 221.558594 219.734375 223.917969 213.1875 225.890625 206.425781 C 220.851562 200.898438 215.847656 196.042969 216.484375 191.570312 C 217.398438 185.515625 224.410156 184.882812 231.703125 180.199219 C 233.042969 171.011719 233.746094 161.507812 233.746094 151.792969 C 233.746094 67.941406 181.5 0 117.058594 0 Z M 117.058594 0 " fill-opacity="1" fill-rule="nonzero"/></g><g clip-path="url(#04176cde6b)"><path fill="#ffd7d2" d="M 96.765625 370.714844 C 94.898438 368.535156 92.257812 367.40625 89.578125 367.40625 C 87.394531 367.40625 85.210938 368.144531 83.414062 369.660156 C 79.609375 372.898438 78.972656 378.566406 82.003906 382.578125 L 108.320312 417.359375 L 203.90625 417.359375 C 203.90625 417.359375 209.789062 401.625 208.097656 387.050781 C 206.757812 375.75 189.074219 337.871094 181.214844 321.503906 C 179.523438 317.914062 175.894531 315.765625 172.089844 315.765625 C 171.175781 315.765625 170.257812 315.90625 169.34375 316.152344 C 164.058594 317.667969 160.957031 323.15625 162.367188 328.472656 L 173.042969 368.324219 L 128.507812 322.066406 C 125.023438 318.476562 119.3125 318.195312 115.507812 321.433594 C 113.324219 323.296875 112.199219 325.9375 112.199219 328.613281 C 112.199219 330.796875 112.9375 332.980469 114.453125 334.773438 L 107.195312 326.289062 C 103.917969 322.417969 98.105469 321.960938 94.230469 325.234375 C 92.078125 327.066406 90.988281 329.636719 90.988281 332.238281 C 90.988281 334.351562 91.726562 336.464844 93.207031 338.1875 L 98.492188 344.421875 C 95.179688 340.546875 89.402344 340.089844 85.527344 343.363281 C 83.378906 345.195312 82.285156 347.765625 82.285156 350.367188 C 82.285156 352.480469 83.027344 354.59375 84.503906 356.316406 Z M 96.765625 370.714844 " fill-opacity="1" fill-rule="nonzero"/></g><path fill="#604533" d="M 239.878906 68.855469 C 239.878906 68.855469 240.335938 96.875 256.894531 110.21875 C 273.453125 123.558594 310.621094 123.878906 326.300781 141.726562 C 341.980469 159.609375 336.519531 186.46875 336.519531 186.46875 C 340.570312 182.453125 345.855469 180.023438 351.632812 180.023438 C 364.28125 180.023438 375.90625 191.640625 374.496094 205.792969 C 373.933594 211.566406 371.46875 216.320312 367.980469 220.121094 L 368.015625 220.15625 C 371.082031 236.347656 378.230469 251.414062 389.71875 265.320312 C 389.71875 265.320312 393.875 261.0625 399.722656 253.527344 C 417.234375 231.03125 449.753906 179.390625 430.480469 126.09375 C 404.796875 54.949219 303.859375 74.699219 272.785156 44.496094 C 270.210938 52.558594 272.464844 62.34375 275.847656 66.882812 C 265.84375 74.101562 253.96875 72.796875 239.878906 68.855469 Z M 239.878906 68.855469 " fill-opacity="1" fill-rule="nonzero"/><path fill="#ffd7d2" d="M 225.890625 206.425781 C 229.589844 210.511719 233.359375 214.980469 234.875 219.980469 C 235.964844 223.535156 238.398438 226.632812 241.992188 227.722656 C 249.8125 230.117188 258.128906 230.292969 266.863281 228.148438 C 262.074219 246.558594 243.472656 243.214844 241.675781 250.570312 C 240.792969 254.230469 242.90625 256.484375 245.230469 257.855469 C 248.015625 259.441406 249.953125 262.1875 250.09375 265.425781 C 250.410156 272.746094 252.453125 285.140625 261.757812 291.089844 C 275.460938 299.855469 303.257812 283.132812 313.511719 289.117188 C 323.765625 295.066406 319.359375 314.570312 319.359375 314.570312 L 397.082031 291.582031 C 397.960938 291.335938 398.878906 291.160156 399.722656 291.125 L 399.722656 253.527344 C 393.875 261.0625 389.71875 265.320312 389.71875 265.320312 C 378.230469 251.414062 371.082031 236.347656 368.015625 220.15625 L 367.980469 220.121094 C 371.46875 216.320312 373.933594 211.566406 374.496094 205.792969 C 375.90625 191.640625 364.28125 180.023438 351.632812 180.023438 C 345.855469 180.023438 340.570312 182.453125 336.519531 186.46875 C 336.519531 186.46875 341.980469 159.609375 326.300781 141.726562 C 310.621094 123.878906 273.453125 123.558594 256.894531 110.21875 C 239.878906 123.347656 250.480469 146.722656 244.84375 162.671875 C 241.496094 172.175781 236.53125 177.066406 231.703125 180.199219 C 224.410156 184.882812 217.398438 185.515625 216.484375 191.570312 C 215.847656 196.042969 220.851562 200.898438 225.890625 206.425781 Z M 273.3125 180.023438 C 273.3125 175.835938 276.695312 172.457031 280.886719 172.457031 C 285.078125 172.457031 288.496094 175.835938 288.496094 180.023438 C 288.496094 184.214844 285.078125 187.628906 280.886719 187.628906 C 276.695312 187.628906 273.3125 184.214844 273.3125 180.023438 Z M 273.3125 180.023438 " fill-opacity="1" fill-rule="nonzero"/><g clip-path="url(#1015c10e04)"><path fill="#a564b5" d="M 275.882812 359.699219 L 253.757812 417.359375 L 277.855469 417.359375 L 277.855469 417.324219 C 281.980469 406.058594 284.550781 395.003906 285.398438 384.199219 C 285.679688 380.574219 287.617188 377.300781 290.363281 374.941406 C 297.902344 368.5 303.648438 360.507812 303.648438 353.785156 L 303.648438 333.683594 L 290.257812 342.167969 C 283.707031 346.285156 278.632812 352.445312 275.882812 359.699219 Z M 275.882812 359.699219 " fill-opacity="1" fill-rule="nonzero"/></g><g clip-path="url(#ca4c23e24b)"><path fill="#ceb4d4" d="M 327.429688 417.359375 L 437.246094 417.359375 C 437.246094 378.179688 424 348.328125 405.078125 324.425781 L 303.648438 353.785156 C 303.648438 360.507812 297.902344 368.5 290.363281 374.941406 C 287.617188 377.300781 285.679688 380.574219 285.398438 384.199219 C 284.550781 395.003906 281.980469 406.058594 277.855469 417.324219 L 277.855469 417.359375 Z M 327.429688 417.359375 " fill-opacity="1" fill-rule="nonzero"/></g><path fill="#d6eae8" d="M 303.648438 333.683594 L 303.648438 353.785156 L 405.078125 324.425781 C 408.917969 323.332031 411.527344 319.847656 411.527344 315.871094 L 411.527344 302.351562 C 411.527344 295.734375 405.925781 290.773438 399.722656 291.125 C 398.878906 291.160156 397.960938 291.335938 397.082031 291.582031 L 319.359375 314.570312 L 310.199219 317.277344 C 306.324219 318.441406 303.648438 321.996094 303.648438 326.042969 Z M 303.648438 333.683594 " fill-opacity="1" fill-rule="nonzero"/><path fill="#543927" d="M 280.886719 172.457031 C 276.695312 172.457031 273.3125 175.835938 273.3125 180.023438 C 273.3125 184.214844 276.695312 187.628906 280.886719 187.628906 C 285.078125 187.628906 288.496094 184.214844 288.496094 180.023438 C 288.496094 175.835938 285.078125 172.457031 280.886719 172.457031 Z M 280.886719 172.457031 " fill-opacity="1" fill-rule="nonzero"/><path fill="#f7b6ad" d="M 341.097656 228.039062 C 347.730469 228.039062 356.734375 225.5 363.191406 219.882812 C 364.515625 218.726562 366.5 218.777344 367.804688 219.957031 C 369.378906 221.390625 369.332031 223.882812 367.714844 225.269531 C 359.851562 232.023438 349.050781 235.082031 341.097656 235.082031 C 339.152344 235.082031 337.574219 233.507812 337.574219 231.5625 C 337.574219 229.613281 339.152344 228.039062 341.097656 228.039062 Z M 341.097656 228.039062 " fill-opacity="1" fill-rule="nonzero"/><path fill="#ffd7d2" d="M 55.792969 91.808594 L 187.488281 91.808594 C 189.433594 91.808594 191.011719 90.234375 191.011719 88.289062 C 191.011719 86.339844 189.433594 84.765625 187.488281 84.765625 L 55.792969 84.765625 C 53.847656 84.765625 52.269531 86.339844 52.269531 88.289062 C 52.269531 90.234375 53.847656 91.808594 55.792969 91.808594 Z M 55.792969 91.808594 " fill-opacity="1" fill-rule="nonzero"/><path fill="#ffd7d2" d="M 55.792969 175.835938 L 187.488281 175.835938 C 189.433594 175.835938 191.011719 174.261719 191.011719 172.316406 C 191.011719 170.367188 189.433594 168.796875 187.488281 168.796875 L 55.792969 168.796875 C 53.847656 168.796875 52.269531 170.367188 52.269531 172.316406 C 52.269531 174.261719 53.847656 175.835938 55.792969 175.835938 Z M 55.792969 175.835938 " fill-opacity="1" fill-rule="nonzero"/><path fill="#ffd7d2" d="M 39.9375 224.871094 L 203.34375 224.871094 C 205.285156 224.871094 206.863281 223.300781 206.863281 221.351562 C 206.863281 219.40625 205.285156 217.832031 203.34375 217.832031 L 39.9375 217.832031 C 37.992188 217.832031 36.414062 219.40625 36.414062 221.351562 C 36.414062 223.300781 37.992188 224.871094 39.9375 224.871094 Z M 39.9375 224.871094 " fill-opacity="1" fill-rule="nonzero"/><path fill="#ffd7d2" d="M 27.359375 135.777344 L 215.917969 135.777344 C 217.863281 135.777344 219.441406 134.203125 219.441406 132.253906 C 219.441406 130.308594 217.863281 128.734375 215.917969 128.734375 L 27.359375 128.734375 C 25.414062 128.734375 23.835938 130.308594 23.835938 132.253906 C 23.835938 134.203125 25.414062 135.777344 27.359375 135.777344 Z M 27.359375 135.777344 " fill-opacity="1" fill-rule="nonzero"/><path fill="#472d1c" d="M 298.992188 152.777344 C 300 152.777344 300.996094 152.347656 301.699219 151.519531 C 302.945312 150.027344 302.75 147.808594 301.257812 146.5625 C 292.214844 138.996094 281.625 137.667969 269.800781 142.636719 C 268.007812 143.390625 267.160156 145.453125 267.914062 147.246094 C 268.664062 149.035156 270.734375 149.886719 272.527344 149.128906 C 281.851562 145.21875 289.773438 146.144531 296.734375 151.960938 C 297.394531 152.507812 298.195312 152.777344 298.992188 152.777344 Z M 298.992188 152.777344 " fill-opacity="1" fill-rule="nonzero"/><path fill="#f7b6ad" d="M 147.292969 376.769531 C 148.097656 376.769531 148.914062 376.496094 149.574219 375.929688 C 151.054688 374.667969 151.230469 372.449219 149.96875 370.96875 L 117.132812 332.488281 C 115.871094 331.003906 113.652344 330.824219 112.164062 332.09375 C 110.6875 333.355469 110.511719 335.578125 111.769531 337.054688 L 144.605469 375.535156 C 145.304688 376.351562 146.292969 376.769531 147.292969 376.769531 Z M 147.292969 376.769531 " fill-opacity="1" fill-rule="nonzero"/><path fill="#f7b6ad" d="M 133.269531 388.703125 C 134.078125 388.703125 134.890625 388.429688 135.550781 387.863281 C 137.03125 386.601562 137.210938 384.382812 135.949219 382.902344 L 101.175781 342.140625 C 99.914062 340.652344 97.691406 340.476562 96.210938 341.746094 C 94.730469 343.003906 94.550781 345.226562 95.8125 346.703125 L 130.585938 387.46875 C 131.28125 388.285156 132.273438 388.703125 133.269531 388.703125 Z M 133.269531 388.703125 " fill-opacity="1" fill-rule="nonzero"/><path fill="#f7b6ad" d="M 119.277344 400.601562 C 120.085938 400.601562 120.898438 400.328125 121.5625 399.761719 C 123.042969 398.5 123.21875 396.28125 121.957031 394.796875 L 99.445312 368.429688 C 98.1875 366.953125 95.957031 366.769531 94.476562 368.039062 C 92.996094 369.300781 92.820312 371.523438 94.082031 373.003906 L 116.59375 399.371094 C 117.296875 400.183594 118.285156 400.601562 119.277344 400.601562 Z M 119.277344 400.601562 " fill-opacity="1" fill-rule="nonzero"/><g clip-path="url(#cdaa504700)"><path fill="#b3a3b7" d="M 327.421875 417.375 C 327.421875 400.597656 335.769531 388.886719 347.046875 379.441406 C 348.652344 378.097656 351.007812 378.160156 352.488281 379.640625 C 353.511719 380.664062 353.875 382.171875 353.484375 383.570312 C 349.703125 396.988281 349.34375 408.453125 353.464844 417.363281 Z M 327.421875 417.375 " fill-opacity="1" fill-rule="nonzero"/></g><g clip-path="url(#bdd3c758fc)"><path fill="#b3a3b7" d="M 437.257812 417.375 C 429.867188 395.382812 414.355469 377.898438 393.773438 372.289062 C 392.429688 371.921875 390.984375 372.347656 389.996094 373.332031 C 388.269531 375.054688 388.535156 377.941406 390.554688 379.300781 C 408.15625 391.183594 415.136719 403.804688 408.535156 417.375 Z M 437.257812 417.375 " fill-opacity="1" fill-rule="nonzero"/></g></svg>