<svg width="200" height="200" viewBox="0 0 200 200" fill="none" xmlns="http://www.w3.org/2000/svg">
<path d="M63.9091 82.0909H81.5455V95.4545C81.5455 97.8143 79.6325 99.7273 77.2728 99.7273H63.9091V82.0909Z" fill="black" stroke="#5B5B5B" stroke-width="0.545455"/>
<rect x="45.7273" y="82.0909" width="17.6364" height="17.6364" fill="black" stroke="#5B5B5B" stroke-width="0.545455"/>
<path d="M27.5454 82.0909H45.1817V99.7273H31.8181C29.4583 99.7273 27.5454 97.8143 27.5454 95.4545V82.0909Z" fill="black" stroke="#5B5B5B" stroke-width="0.545455"/>
<rect x="27.5454" y="63.9091" width="17.6364" height="17.6364" fill="black" stroke="#5B5B5B" stroke-width="0.545455"/>
<path d="M31.8181 45.7273H45.1817V63.3636H27.5454V50C27.5454 47.6402 29.4583 45.7273 31.8181 45.7273Z" fill="black" stroke="#5B5B5B" stroke-width="0.545455"/>
<path d="M68.1819 45.7273H81.5455V59.0909C81.5455 61.4507 79.6325 63.3636 77.2728 63.3636H63.9091V50C63.9091 47.6402 65.8221 45.7273 68.1819 45.7273Z" fill="black" stroke="#5B5B5B" stroke-width="0.545455"/>
<path d="M86.3639 27.5455H99.7275V40.9091C99.7275 43.2689 97.8145 45.1818 95.4548 45.1818H82.0911V31.8182C82.0911 29.4584 84.0041 27.5455 86.3639 27.5455Z" fill="black" stroke="#5B5B5B" stroke-width="0.545455"/>
<rect x="100.273" y="82.0909" width="17.6364" height="17.6364" fill="black" stroke="#5B5B5B" stroke-width="0.545455"/>
<path d="M104.546 63.9091H117.909V81.5455H100.273V68.1818C100.273 65.8221 102.186 63.9091 104.546 63.9091Z" fill="black" stroke="#5B5B5B" stroke-width="0.545455"/>
<path d="M118.455 63.9091H136.091V77.2727C136.091 79.6325 134.178 81.5455 131.818 81.5455H118.455V63.9091Z" fill="black" stroke="#5B5B5B" stroke-width="0.545455"/>
<path d="M122.727 27.5455H136.091V40.9091C136.091 43.2689 134.178 45.1818 131.818 45.1818H118.455V31.8182C118.455 29.4584 120.368 27.5455 122.727 27.5455Z" fill="black" stroke="#5B5B5B" stroke-width="0.545455"/>
<path d="M140.909 82.0909H154.273V95.4545C154.273 97.8143 152.36 99.7273 150 99.7273H136.636V86.3636C136.636 84.0039 138.549 82.0909 140.909 82.0909Z" fill="black" stroke="#5B5B5B" stroke-width="0.545455"/>
<path d="M159.091 45.7273H172.455V59.0909C172.455 61.4507 170.542 63.3636 168.182 63.3636H154.818V50C154.818 47.6402 156.731 45.7273 159.091 45.7273Z" fill="black" stroke="#5B5B5B" stroke-width="0.545455"/>
<path d="M45.7273 100.273H63.3637V113.636C63.3637 115.996 61.4507 117.909 59.091 117.909H45.7273V100.273Z" fill="black" stroke="#5B5B5B" stroke-width="0.545455"/>
<path d="M100.273 100.273H117.909V113.636C117.909 115.996 115.996 117.909 113.636 117.909H100.273V100.273Z" fill="black" stroke="#5B5B5B" stroke-width="0.545455"/>
<path d="M122.727 118.455H136.091V131.818C136.091 134.178 134.178 136.091 131.818 136.091H118.455V122.727C118.455 120.368 120.368 118.455 122.727 118.455Z" fill="black" stroke="#5B5B5B" stroke-width="0.545455"/>
<path d="M140.909 136.636H154.273V154.273H136.636V140.909C136.636 138.549 138.549 136.636 140.909 136.636Z" fill="black" stroke="#5B5B5B" stroke-width="0.545455"/>
<path d="M136.636 154.818H154.273V168.182C154.273 170.542 152.36 172.455 150 172.455H136.636V154.818Z" fill="black" stroke="#5B5B5B" stroke-width="0.545455"/>
<path d="M154.818 136.636H172.455V150C172.455 152.36 170.542 154.273 168.182 154.273H154.818V136.636Z" fill="black" stroke="#5B5B5B" stroke-width="0.545455"/>
<path d="M122.727 154.818H136.091V172.455H118.455V159.091C118.455 156.731 120.368 154.818 122.727 154.818Z" fill="black" stroke="#5B5B5B" stroke-width="0.545455"/>
<path d="M86.3639 100.273H99.7275V117.909H82.0911V104.545C82.0911 102.186 84.0041 100.273 86.3639 100.273Z" fill="black" stroke="#5B5B5B" stroke-width="0.545455"/>
<path d="M82.0911 118.455H99.7275V131.818C99.7275 134.178 97.8145 136.091 95.4548 136.091H86.3639C84.0041 136.091 82.0911 134.178 82.0911 131.818V118.455Z" fill="black" stroke="#5B5B5B" stroke-width="0.545455"/>
<path d="M63.9091 136.636H81.5455V150C81.5455 152.36 79.6325 154.273 77.2728 154.273H63.9091V136.636Z" fill="black" stroke="#5B5B5B" stroke-width="0.545455"/>
<path d="M50 136.636H63.3637V154.273H45.7273V140.909C45.7273 138.549 47.6403 136.636 50 136.636Z" fill="black" stroke="#5B5B5B" stroke-width="0.545455"/>
<path d="M31.8181 154.818H45.1817V168.182C45.1817 170.542 43.2688 172.455 40.909 172.455H27.5454V159.091C27.5454 156.731 29.4583 154.818 31.8181 154.818Z" fill="black" stroke="#5B5B5B" stroke-width="0.545455"/>
</svg>
