<svg width="200" height="200" viewBox="0 0 200 200" fill="none" xmlns="http://www.w3.org/2000/svg">
<rect x="73.2793" y="82.6216" width="12.5" height="12.5" transform="rotate(45 73.2793 82.6216)" fill="black" stroke="white" stroke-width="1.13636"/>
<rect x="55.0972" y="82.6216" width="12.5" height="12.5" transform="rotate(45 55.0972 82.6216)" fill="black" stroke="white" stroke-width="1.13636"/>
<rect x="36.9155" y="82.6216" width="12.5" height="12.5" transform="rotate(45 36.9155 82.6216)" fill="black" stroke="white" stroke-width="1.13636"/>
<rect x="36.9155" y="64.4399" width="12.5" height="12.5" transform="rotate(45 36.9155 64.4399)" fill="black" stroke="white" stroke-width="1.13636"/>
<rect x="36.9155" y="46.2581" width="12.5" height="12.5" transform="rotate(45 36.9155 46.2581)" fill="black" stroke="white" stroke-width="1.13636"/>
<rect x="73.2793" y="46.2581" width="12.5" height="12.5" transform="rotate(45 73.2793 46.2581)" fill="black" stroke="white" stroke-width="1.13636"/>
<rect x="91.4603" y="28.0762" width="12.5" height="12.5" transform="rotate(45 91.4603 28.0762)" fill="black" stroke="white" stroke-width="1.13636"/>
<rect x="109.643" y="82.6216" width="12.5" height="12.5" transform="rotate(45 109.643 82.6216)" fill="black" stroke="white" stroke-width="1.13636"/>
<rect x="109.643" y="64.4399" width="12.5" height="12.5" transform="rotate(45 109.643 64.4399)" fill="black" stroke="white" stroke-width="1.13636"/>
<rect x="127.824" y="64.4399" width="12.5" height="12.5" transform="rotate(45 127.824 64.4399)" fill="black" stroke="white" stroke-width="1.13636"/>
<rect x="127.824" y="28.0762" width="12.5" height="12.5" transform="rotate(45 127.824 28.0762)" fill="black" stroke="white" stroke-width="1.13636"/>
<rect x="146.006" y="82.6216" width="12.5" height="12.5" transform="rotate(45 146.006 82.6216)" fill="black" stroke="white" stroke-width="1.13636"/>
<rect x="164.188" y="46.2581" width="12.5" height="12.5" transform="rotate(45 164.188 46.2581)" fill="black" stroke="white" stroke-width="1.13636"/>
<rect x="55.0972" y="100.803" width="12.5" height="12.5" transform="rotate(45 55.0972 100.803)" fill="black" stroke="white" stroke-width="1.13636"/>
<rect x="109.643" y="100.803" width="12.5" height="12.5" transform="rotate(45 109.643 100.803)" fill="black" stroke="white" stroke-width="1.13636"/>
<rect x="127.824" y="118.985" width="12.5" height="12.5" transform="rotate(45 127.824 118.985)" fill="black" stroke="white" stroke-width="1.13636"/>
<rect x="146.006" y="137.167" width="12.5" height="12.5" transform="rotate(45 146.006 137.167)" fill="black" stroke="white" stroke-width="1.13636"/>
<rect x="146.006" y="155.349" width="12.5" height="12.5" transform="rotate(45 146.006 155.349)" fill="black" stroke="white" stroke-width="1.13636"/>
<rect x="164.188" y="137.167" width="12.5" height="12.5" transform="rotate(45 164.188 137.167)" fill="black" stroke="white" stroke-width="1.13636"/>
<rect x="127.824" y="155.349" width="12.5" height="12.5" transform="rotate(45 127.824 155.349)" fill="black" stroke="white" stroke-width="1.13636"/>
<rect x="91.4603" y="100.803" width="12.5" height="12.5" transform="rotate(45 91.4603 100.803)" fill="black" stroke="white" stroke-width="1.13636"/>
<rect x="91.4603" y="118.985" width="12.5" height="12.5" transform="rotate(45 91.4603 118.985)" fill="black" stroke="white" stroke-width="1.13636"/>
<rect x="73.2793" y="137.167" width="12.5" height="12.5" transform="rotate(45 73.2793 137.167)" fill="black" stroke="white" stroke-width="1.13636"/>
<rect x="55.0972" y="137.167" width="12.5" height="12.5" transform="rotate(45 55.0972 137.167)" fill="black" stroke="white" stroke-width="1.13636"/>
<rect x="36.9155" y="155.349" width="12.5" height="12.5" transform="rotate(45 36.9155 155.349)" fill="black" stroke="white" stroke-width="1.13636"/>
</svg>
