<svg width="200" height="200" viewBox="0 0 200 200" fill="none" xmlns="http://www.w3.org/2000/svg">
<path d="M63.9092 82.0909H77.2728C79.6326 82.0909 81.5456 84.0039 81.5456 86.3636V95.4545C81.5456 97.8143 79.6326 99.7273 77.2728 99.7273H63.9092V82.0909Z" fill="black" stroke="#5B5B5B" stroke-width="0.545455"/>
<rect x="45.7273" y="82.0909" width="17.6364" height="17.6364" fill="black" stroke="#5B5B5B" stroke-width="0.545455"/>
<path d="M27.5454 82.0909H45.1818V99.7273H31.8182C29.4584 99.7273 27.5454 97.8143 27.5454 95.4545V82.0909Z" fill="black" stroke="#5B5B5B" stroke-width="0.545455"/>
<rect x="27.5454" y="63.9091" width="17.6364" height="17.6364" fill="black" stroke="#5B5B5B" stroke-width="0.545455"/>
<path d="M31.8182 45.7273H40.9091C43.2688 45.7273 45.1818 47.6402 45.1818 50V63.3636H27.5454V50C27.5454 47.6402 29.4584 45.7273 31.8182 45.7273Z" fill="black" stroke="#5B5B5B" stroke-width="0.545455"/>
<rect x="63.9092" y="45.7273" width="17.6364" height="17.6364" rx="4.27273" fill="black" stroke="#5B5B5B" stroke-width="0.545455"/>
<rect x="82.0908" y="27.5455" width="17.6364" height="17.6364" rx="4.27273" fill="black" stroke="#5B5B5B" stroke-width="0.545455"/>
<rect x="100.273" y="82.0909" width="17.6364" height="17.6364" fill="black" stroke="#5B5B5B" stroke-width="0.545455"/>
<path d="M104.545 63.9091H117.909V81.5455H100.273V68.1818C100.273 65.8221 102.186 63.9091 104.545 63.9091Z" fill="black" stroke="#5B5B5B" stroke-width="0.545455"/>
<path d="M118.455 63.9091H131.818C134.178 63.9091 136.091 65.8221 136.091 68.1818V77.2727C136.091 79.6325 134.178 81.5455 131.818 81.5455H118.455V63.9091Z" fill="black" stroke="#5B5B5B" stroke-width="0.545455"/>
<rect x="118.455" y="27.5455" width="17.6364" height="17.6364" rx="4.27273" fill="black" stroke="#5B5B5B" stroke-width="0.545455"/>
<rect x="136.636" y="82.0909" width="17.6364" height="17.6364" rx="4.27273" fill="black" stroke="#5B5B5B" stroke-width="0.545455"/>
<rect x="154.818" y="45.7273" width="17.6364" height="17.6364" rx="4.27273" fill="black" stroke="#5B5B5B" stroke-width="0.545455"/>
<path d="M45.7273 100.273H63.3637V113.636C63.3637 115.996 61.4507 117.909 59.091 117.909H50C47.6403 117.909 45.7273 115.996 45.7273 113.636V100.273Z" fill="black" stroke="#5B5B5B" stroke-width="0.545455"/>
<path d="M100.273 100.273H117.909V113.636C117.909 115.996 115.996 117.909 113.636 117.909H100.273V100.273Z" fill="black" stroke="#5B5B5B" stroke-width="0.545455"/>
<rect x="118.455" y="118.455" width="17.6364" height="17.6364" rx="4.27273" fill="black" stroke="#5B5B5B" stroke-width="0.545455"/>
<path d="M140.909 136.636H154.273V154.273H136.636V140.909C136.636 138.549 138.549 136.636 140.909 136.636Z" fill="black" stroke="#5B5B5B" stroke-width="0.545455"/>
<path d="M136.636 154.818H154.273V168.182C154.273 170.542 152.36 172.455 150 172.455H136.636V154.818Z" fill="black" stroke="#5B5B5B" stroke-width="0.545455"/>
<path d="M154.818 136.636H168.182C170.542 136.636 172.455 138.549 172.455 140.909V150C172.455 152.36 170.542 154.273 168.182 154.273H154.818V136.636Z" fill="black" stroke="#5B5B5B" stroke-width="0.545455"/>
<path d="M122.727 154.818H136.091V172.455H122.727C120.368 172.455 118.455 170.542 118.455 168.182V159.091C118.455 156.731 120.368 154.818 122.727 154.818Z" fill="black" stroke="#5B5B5B" stroke-width="0.545455"/>
<path d="M86.3636 100.273H99.7272V117.909H82.0908V104.545C82.0908 102.186 84.0038 100.273 86.3636 100.273Z" fill="black" stroke="#5B5B5B" stroke-width="0.545455"/>
<path d="M82.0908 118.455H99.7272V131.818C99.7272 134.178 97.8142 136.091 95.4545 136.091H86.3636C84.0038 136.091 82.0908 134.178 82.0908 131.818V118.455Z" fill="black" stroke="#5B5B5B" stroke-width="0.545455"/>
<path d="M63.9092 136.636H77.2728C79.6326 136.636 81.5456 138.549 81.5456 140.909V150C81.5456 152.36 79.6326 154.273 77.2728 154.273H63.9092V136.636Z" fill="black" stroke="#5B5B5B" stroke-width="0.545455"/>
<path d="M50 136.636H63.3637V154.273H50C47.6403 154.273 45.7273 152.36 45.7273 150V140.909C45.7273 138.549 47.6403 136.636 50 136.636Z" fill="black" stroke="#5B5B5B" stroke-width="0.545455"/>
<rect x="27.5454" y="154.818" width="17.6364" height="17.6364" rx="4.27273" fill="black" stroke="#5B5B5B" stroke-width="0.545455"/>
</svg>
