<svg width="200" height="200" viewBox="0 0 200 200" fill="none" xmlns="http://www.w3.org/2000/svg">
<rect x="64.2044" y="82.3864" width="17.0455" height="17.0455" fill="black" stroke="white" stroke-width="1.13636"/>
<rect x="46.0228" y="82.3864" width="17.0455" height="17.0455" fill="black" stroke="white" stroke-width="1.13636"/>
<rect x="27.8411" y="82.3864" width="17.0455" height="17.0455" fill="black" stroke="white" stroke-width="1.13636"/>
<rect x="27.8411" y="64.2045" width="17.0455" height="17.0455" fill="black" stroke="white" stroke-width="1.13636"/>
<rect x="27.8411" y="46.0227" width="17.0455" height="17.0455" fill="black" stroke="white" stroke-width="1.13636"/>
<rect x="64.2044" y="46.0227" width="17.0455" height="17.0455" fill="black" stroke="white" stroke-width="1.13636"/>
<rect x="82.3867" y="27.8409" width="17.0455" height="17.0455" fill="black" stroke="white" stroke-width="1.13636"/>
<rect x="100.568" y="82.3864" width="17.0455" height="17.0455" fill="black" stroke="white" stroke-width="1.13636"/>
<rect x="100.568" y="64.2045" width="17.0455" height="17.0455" fill="black" stroke="white" stroke-width="1.13636"/>
<rect x="118.75" y="64.2045" width="17.0455" height="17.0455" fill="black" stroke="white" stroke-width="1.13636"/>
<rect x="118.75" y="27.8409" width="17.0455" height="17.0455" fill="black" stroke="white" stroke-width="1.13636"/>
<rect x="136.932" y="82.3864" width="17.0455" height="17.0455" fill="black" stroke="white" stroke-width="1.13636"/>
<rect x="155.114" y="46.0227" width="17.0455" height="17.0455" fill="black" stroke="white" stroke-width="1.13636"/>
<rect x="46.0228" y="100.568" width="17.0455" height="17.0455" fill="black" stroke="white" stroke-width="1.13636"/>
<rect x="100.568" y="100.568" width="17.0455" height="17.0455" fill="black" stroke="white" stroke-width="1.13636"/>
<rect x="118.75" y="118.75" width="17.0455" height="17.0455" fill="black" stroke="white" stroke-width="1.13636"/>
<rect x="136.932" y="136.932" width="17.0455" height="17.0455" fill="black" stroke="white" stroke-width="1.13636"/>
<rect x="136.932" y="155.114" width="17.0455" height="17.0455" fill="black" stroke="white" stroke-width="1.13636"/>
<rect x="155.114" y="136.932" width="17.0455" height="17.0455" fill="black" stroke="white" stroke-width="1.13636"/>
<rect x="118.75" y="155.114" width="17.0455" height="17.0455" fill="black" stroke="white" stroke-width="1.13636"/>
<rect x="82.3867" y="100.568" width="17.0455" height="17.0455" fill="black" stroke="white" stroke-width="1.13636"/>
<rect x="82.3867" y="118.75" width="17.0455" height="17.0455" fill="black" stroke="white" stroke-width="1.13636"/>
<rect x="64.2044" y="136.932" width="17.0455" height="17.0455" fill="black" stroke="white" stroke-width="1.13636"/>
<rect x="46.0228" y="136.932" width="17.0455" height="17.0455" fill="black" stroke="white" stroke-width="1.13636"/>
<rect x="27.8411" y="155.114" width="17.0455" height="17.0455" fill="black" stroke="white" stroke-width="1.13636"/>
</svg>
