<svg width="200" height="200" viewBox="0 0 200 200" fill="none" xmlns="http://www.w3.org/2000/svg">
<path d="M63.9092 82.0909H72.7274C77.5975 82.0909 81.5456 86.0389 81.5456 90.9091C81.5456 95.7792 77.5975 99.7273 72.7274 99.7273H63.9092V82.0909Z" fill="black" stroke="#5B5B5B" stroke-width="0.545455"/>
<rect x="45.7273" y="82.0909" width="17.6364" height="17.6364" fill="black" stroke="#5B5B5B" stroke-width="0.545455"/>
<path d="M27.5454 82.0909H45.1817V99.7273H36.3636C31.4934 99.7273 27.5454 95.7792 27.5454 90.9091V82.0909Z" fill="black" stroke="#5B5B5B" stroke-width="0.545455"/>
<rect x="27.5454" y="63.9091" width="17.6364" height="17.6364" fill="black" stroke="#5B5B5B" stroke-width="0.545455"/>
<path d="M45.1817 54.5455V63.3636H27.5454V54.5455C27.5454 49.6753 31.4934 45.7273 36.3636 45.7273C41.2337 45.7273 45.1817 49.6753 45.1817 54.5455Z" fill="black" stroke="#5B5B5B" stroke-width="0.545455"/>
<rect x="63.9092" y="45.7273" width="17.6364" height="17.6364" rx="8.81818" fill="black" stroke="#5B5B5B" stroke-width="0.545455"/>
<rect x="82.0908" y="27.5455" width="17.6364" height="17.6364" rx="8.81818" fill="black" stroke="#5B5B5B" stroke-width="0.545455"/>
<rect x="100.273" y="82.0909" width="17.6364" height="17.6364" fill="black" stroke="#5B5B5B" stroke-width="0.545455"/>
<path d="M109.091 63.9091H117.909V81.5455H100.273V72.7273C100.273 67.8571 104.221 63.9091 109.091 63.9091Z" fill="black" stroke="#5B5B5B" stroke-width="0.545455"/>
<path d="M118.455 63.9091H127.273C132.143 63.9091 136.091 67.8571 136.091 72.7273C136.091 77.5974 132.143 81.5455 127.273 81.5455H118.455V63.9091Z" fill="black" stroke="#5B5B5B" stroke-width="0.545455"/>
<rect x="118.455" y="27.5455" width="17.6364" height="17.6364" rx="8.81818" fill="black" stroke="#5B5B5B" stroke-width="0.545455"/>
<rect x="136.636" y="82.0909" width="17.6364" height="17.6364" rx="8.81818" fill="black" stroke="#5B5B5B" stroke-width="0.545455"/>
<rect x="154.818" y="45.7273" width="17.6364" height="17.6364" rx="8.81818" fill="black" stroke="#5B5B5B" stroke-width="0.545455"/>
<path d="M45.7273 100.273H63.3637V109.091C63.3637 113.961 59.4156 117.909 54.5455 117.909C49.6754 117.909 45.7273 113.961 45.7273 109.091V100.273Z" fill="black" stroke="#5B5B5B" stroke-width="0.545455"/>
<path d="M100.273 100.273H117.909V109.091C117.909 113.961 113.961 117.909 109.091 117.909H100.273V100.273Z" fill="black" stroke="#5B5B5B" stroke-width="0.545455"/>
<rect x="118.455" y="118.455" width="17.6364" height="17.6364" rx="8.81818" fill="black" stroke="#5B5B5B" stroke-width="0.545455"/>
<path d="M145.454 136.636H154.273V154.273H136.636V145.455C136.636 140.584 140.584 136.636 145.454 136.636Z" fill="black" stroke="#5B5B5B" stroke-width="0.545455"/>
<path d="M136.636 154.818H154.273V163.636C154.273 168.507 150.325 172.455 145.454 172.455H136.636V154.818Z" fill="black" stroke="#5B5B5B" stroke-width="0.545455"/>
<path d="M154.818 136.636H163.636C168.506 136.636 172.455 140.584 172.455 145.455C172.455 150.325 168.506 154.273 163.636 154.273H154.818V136.636Z" fill="black" stroke="#5B5B5B" stroke-width="0.545455"/>
<path d="M127.273 154.818H136.091V172.455H127.273C122.403 172.455 118.455 168.507 118.455 163.636C118.455 158.766 122.403 154.818 127.273 154.818Z" fill="black" stroke="#5B5B5B" stroke-width="0.545455"/>
<path d="M90.909 100.273H99.7272V117.909H82.0908V109.091C82.0908 104.221 86.0389 100.273 90.909 100.273Z" fill="black" stroke="#5B5B5B" stroke-width="0.545455"/>
<path d="M82.0908 118.455H99.7272V127.273C99.7272 132.143 95.7792 136.091 90.909 136.091C86.0389 136.091 82.0908 132.143 82.0908 127.273V118.455Z" fill="black" stroke="#5B5B5B" stroke-width="0.545455"/>
<path d="M63.9092 136.636H72.7274C77.5975 136.636 81.5456 140.584 81.5456 145.455C81.5456 150.325 77.5975 154.273 72.7274 154.273H63.9092V136.636Z" fill="black" stroke="#5B5B5B" stroke-width="0.545455"/>
<path d="M54.5455 136.636H63.3637V154.273H54.5455C49.6753 154.273 45.7273 150.325 45.7273 145.455C45.7273 140.584 49.6754 136.636 54.5455 136.636Z" fill="black" stroke="#5B5B5B" stroke-width="0.545455"/>
<rect x="27.5454" y="154.818" width="17.6364" height="17.6364" rx="8.81818" fill="black" stroke="#5B5B5B" stroke-width="0.545455"/>
</svg>
