<svg width="200" height="200" viewBox="0 0 200 200" fill="none" xmlns="http://www.w3.org/2000/svg">
<rect x="63.9092" y="82.0909" width="17.6364" height="17.6364" fill="black" stroke="#5B5B5B" stroke-width="0.545455"/>
<rect x="45.7273" y="82.0909" width="17.6364" height="17.6364" fill="black" stroke="#5B5B5B" stroke-width="0.545455"/>
<rect x="27.5455" y="82.0909" width="17.6364" height="17.6364" fill="black" stroke="#5B5B5B" stroke-width="0.545455"/>
<rect x="27.5455" y="63.9091" width="17.6364" height="17.6364" fill="black" stroke="#5B5B5B" stroke-width="0.545455"/>
<rect x="27.5455" y="45.7273" width="17.6364" height="17.6364" fill="black" stroke="#5B5B5B" stroke-width="0.545455"/>
<rect x="63.9092" y="45.7273" width="17.6364" height="17.6364" fill="black" stroke="#5B5B5B" stroke-width="0.545455"/>
<rect x="82.0908" y="27.5455" width="17.6364" height="17.6364" fill="black" stroke="#5B5B5B" stroke-width="0.545455"/>
<rect x="100.273" y="82.0909" width="17.6364" height="17.6364" fill="black" stroke="#5B5B5B" stroke-width="0.545455"/>
<rect x="100.273" y="63.9091" width="17.6364" height="17.6364" fill="black" stroke="#5B5B5B" stroke-width="0.545455"/>
<rect x="118.455" y="63.9091" width="17.6364" height="17.6364" fill="black" stroke="#5B5B5B" stroke-width="0.545455"/>
<rect x="118.455" y="27.5455" width="17.6364" height="17.6364" fill="black" stroke="#5B5B5B" stroke-width="0.545455"/>
<rect x="136.636" y="82.0909" width="17.6364" height="17.6364" fill="black" stroke="#5B5B5B" stroke-width="0.545455"/>
<rect x="154.818" y="45.7273" width="17.6364" height="17.6364" fill="black" stroke="#5B5B5B" stroke-width="0.545455"/>
<rect x="45.7273" y="100.273" width="17.6364" height="17.6364" fill="black" stroke="#5B5B5B" stroke-width="0.545455"/>
<rect x="100.273" y="100.273" width="17.6364" height="17.6364" fill="black" stroke="#5B5B5B" stroke-width="0.545455"/>
<rect x="118.455" y="118.455" width="17.6364" height="17.6364" fill="black" stroke="#5B5B5B" stroke-width="0.545455"/>
<rect x="136.636" y="136.636" width="17.6364" height="17.6364" fill="black" stroke="#5B5B5B" stroke-width="0.545455"/>
<rect x="154.818" y="136.636" width="17.6364" height="17.6364" fill="black" stroke="#5B5B5B" stroke-width="0.545455"/>
<rect x="136.636" y="154.818" width="17.6364" height="17.6364" fill="black" stroke="#5B5B5B" stroke-width="0.545455"/>
<rect x="118.455" y="154.818" width="17.6364" height="17.6364" fill="black" stroke="#5B5B5B" stroke-width="0.545455"/>
<rect x="82.0908" y="100.273" width="17.6364" height="17.6364" fill="black" stroke="#5B5B5B" stroke-width="0.545455"/>
<rect x="82.0908" y="118.455" width="17.6364" height="17.6364" fill="black" stroke="#5B5B5B" stroke-width="0.545455"/>
<rect x="63.9092" y="136.636" width="17.6364" height="17.6364" fill="black" stroke="#5B5B5B" stroke-width="0.545455"/>
<rect x="45.7273" y="136.636" width="17.6364" height="17.6364" fill="black" stroke="#5B5B5B" stroke-width="0.545455"/>
<rect x="27.5455" y="154.818" width="17.6364" height="17.6364" fill="black" stroke="#5B5B5B" stroke-width="0.545455"/>
</svg>
